<?xml version="1.0" encoding="UTF-8" standalone="no"?>
<svg id="Layer_1" xmlns:rdf="http://www.w3.org/1999/02/22-rdf-syntax-ns#" xmlns="http://www.w3.org/2000/svg" version="1.1" xml:space="preserve" height="24px" viewBox="0 0 24 24" width="24px" enable-background="new 0 0 24 24" y="0px" x="0px" xmlns:cc="http://creativecommons.org/ns#" xmlns:xlink="http://www.w3.org/1999/xlink" xmlns:dc="http://purl.org/dc/elements/1.1/"><metadata id="metadata55"><rdf:RDF><cc:Work rdf:about=""><dc:format>image/svg+xml</dc:format><dc:type rdf:resource="http://purl.org/dc/dcmitype/StillImage"/><dc:title/></cc:Work></rdf:RDF></metadata><g id="g7" opacity="0.5" display="none"><defs id="defs9"><rect id="SVGID_1_" opacity="0.5" height="24" width="24" y="0" x="0"/></defs><clipPath id="SVGID_2_" display="inline"><use id="use13" xlink:href="#SVGID_1_" height="24" width="24" y="0" x="0" overflow="visible"/></clipPath><g id="g15" clip-path="url(#SVGID_2_)" display="inline"><g id="g17"><defs id="defs19"><rect id="SVGID_3_" y="0" width="24" height="24" x="0"/></defs><clipPath id="SVGID_4_"><use id="use23" xlink:href="#SVGID_3_" height="24" width="24" y="0" x="0" overflow="visible"/></clipPath><path id="path25" d="M15.502,14h-0.794l-0.274-0.273c0.976-1.138,1.565-2.61,1.565-4.227,0-3.59-2.909-6.5-6.499-6.5s-6.5,2.91-6.5,6.5,2.91,6.5,6.5,6.5c1.615,0,3.088-0.592,4.225-1.566l0.276,0.274v0.792l4.998,4.991,1.491-1.491-4.988-5zm-6.002,0c-2.485,0-4.5-2.015-4.5-4.5s2.015-4.5,4.5-4.5,4.5,2.015,4.5,4.5-2.015,4.5-4.5,4.5" clip-path="url(#SVGID_4_)" fill="#010101"/></g></g></g><path id="path3065" fill="#808080" d="m13.5,7a1.5,1.5,0,0,1,-3,0,1.5,1.5,0,1,1,3,0z"/><path id="path3065-8" fill="#808080" d="m13.5,12a1.5,1.5,0,0,1,-3,0,1.5,1.5,0,1,1,3,0z"/><path id="path3065-3" fill="#808080" d="m13.5,17a1.5,1.5,0,0,1,-3,0,1.5,1.5,0,1,1,3,0z"/></svg>
